<svg width="36" height="36" viewBox="0 0 36 36" fill="none" xmlns="http://www.w3.org/2000/svg">
<path d="M21.3333 13V12.3333C21.3333 11.3999 21.3333 10.9332 21.1517 10.5767C20.9919 10.2631 20.7369 10.0081 20.4233 9.84832C20.0668 9.66667 19.6001 9.66667 18.6667 9.66667H17.3333C16.3999 9.66667 15.9332 9.66667 15.5767 9.84832C15.2631 10.0081 15.0081 10.2631 14.8483 10.5767C14.6667 10.9332 14.6667 11.3999 14.6667 12.3333V13M16.3333 17.5833V21.75M19.6667 17.5833V21.75M10.5 13H25.5M23.8333 13V22.3333C23.8333 23.7335 23.8333 24.4335 23.5608 24.9683C23.3212 25.4387 22.9387 25.8212 22.4683 26.0609C21.9335 26.3333 21.2335 26.3333 19.8333 26.3333H16.1667C14.7665 26.3333 14.0665 26.3333 13.5317 26.0609C13.0613 25.8212 12.6788 25.4387 12.4392 24.9683C12.1667 24.4335 12.1667 23.7335 12.1667 22.3333V13" stroke="#6C7275" stroke-width="1.66667" stroke-linecap="round" stroke-linejoin="round"/>
</svg>
