<svg width="520" height="216" viewBox="0 0 520 216" fill="none" xmlns="http://www.w3.org/2000/svg">
<g filter="url(#filter0_d_1095_2937)">
<rect x="4" y="2" width="512" height="208" rx="20" fill="#FEFEFE"/>
<rect x="228" y="30" width="64" height="64" rx="32" fill="#F3F5F7"/>
<path d="M264 62L260 58M260 58L256 62M260 58V67.2C260 68.5907 260 69.2861 260.551 70.0646C260.916 70.5819 261.969 71.2203 262.597 71.3054C263.542 71.4334 263.901 71.2462 264.619 70.8719C267.817 69.2036 270 65.8568 270 62C270 56.4772 265.523 52 260 52C254.477 52 250 56.4772 250 62C250 65.7014 252.011 68.9331 255 70.6622" stroke="black" stroke-width="2" stroke-linecap="round" stroke-linejoin="round"/>
<path d="M150.724 129.545H153.886V140.949C153.886 142.199 153.591 143.298 153 144.247C152.415 145.196 151.591 145.937 150.528 146.472C149.466 147 148.224 147.264 146.804 147.264C145.378 147.264 144.134 147 143.071 146.472C142.009 145.937 141.185 145.196 140.599 144.247C140.014 143.298 139.722 142.199 139.722 140.949V129.545H142.884V140.685C142.884 141.412 143.043 142.06 143.361 142.628C143.685 143.196 144.139 143.642 144.724 143.966C145.31 144.284 146.003 144.443 146.804 144.443C147.605 144.443 148.298 144.284 148.884 143.966C149.474 143.642 149.929 143.196 150.247 142.628C150.565 142.06 150.724 141.412 150.724 140.685V129.545ZM156.707 151.909V133.909H159.741V136.074H159.92C160.079 135.756 160.303 135.418 160.593 135.06C160.883 134.696 161.275 134.386 161.769 134.131C162.264 133.869 162.894 133.739 163.661 133.739C164.673 133.739 165.585 133.997 166.397 134.514C167.215 135.026 167.863 135.784 168.34 136.79C168.823 137.79 169.065 139.017 169.065 140.472C169.065 141.909 168.829 143.131 168.357 144.136C167.886 145.142 167.244 145.909 166.431 146.438C165.619 146.966 164.698 147.23 163.67 147.23C162.92 147.23 162.298 147.105 161.803 146.855C161.309 146.605 160.911 146.304 160.61 145.952C160.315 145.594 160.085 145.256 159.92 144.938H159.792V151.909H156.707ZM159.732 140.455C159.732 141.301 159.852 142.043 160.09 142.679C160.335 143.315 160.684 143.812 161.139 144.17C161.599 144.523 162.156 144.699 162.809 144.699C163.491 144.699 164.062 144.517 164.522 144.153C164.982 143.784 165.329 143.281 165.562 142.645C165.801 142.003 165.92 141.273 165.92 140.455C165.92 139.642 165.803 138.92 165.57 138.29C165.337 137.659 164.991 137.165 164.531 136.807C164.07 136.449 163.497 136.27 162.809 136.27C162.15 136.27 161.59 136.443 161.13 136.79C160.67 137.136 160.32 137.622 160.082 138.247C159.849 138.872 159.732 139.608 159.732 140.455ZM174.312 129.545V147H171.227V129.545H174.312ZM182.715 147.256C181.436 147.256 180.328 146.974 179.391 146.412C178.453 145.849 177.726 145.062 177.209 144.051C176.698 143.04 176.442 141.858 176.442 140.506C176.442 139.153 176.698 137.969 177.209 136.952C177.726 135.935 178.453 135.145 179.391 134.582C180.328 134.02 181.436 133.739 182.715 133.739C183.993 133.739 185.101 134.02 186.039 134.582C186.976 135.145 187.701 135.935 188.212 136.952C188.729 137.969 188.988 139.153 188.988 140.506C188.988 141.858 188.729 143.04 188.212 144.051C187.701 145.062 186.976 145.849 186.039 146.412C185.101 146.974 183.993 147.256 182.715 147.256ZM182.732 144.784C183.425 144.784 184.005 144.594 184.471 144.213C184.936 143.827 185.283 143.31 185.51 142.662C185.743 142.014 185.86 141.293 185.86 140.497C185.86 139.696 185.743 138.972 185.51 138.324C185.283 137.67 184.936 137.151 184.471 136.764C184.005 136.378 183.425 136.185 182.732 136.185C182.022 136.185 181.431 136.378 180.959 136.764C180.493 137.151 180.144 137.67 179.911 138.324C179.684 138.972 179.57 139.696 179.57 140.497C179.57 141.293 179.684 142.014 179.911 142.662C180.144 143.31 180.493 143.827 180.959 144.213C181.431 144.594 182.022 144.784 182.732 144.784ZM194.893 147.264C194.064 147.264 193.317 147.116 192.652 146.821C191.993 146.52 191.47 146.077 191.084 145.491C190.703 144.906 190.513 144.185 190.513 143.327C190.513 142.588 190.649 141.977 190.922 141.494C191.194 141.011 191.567 140.625 192.038 140.335C192.51 140.045 193.041 139.827 193.632 139.679C194.228 139.526 194.845 139.415 195.481 139.347C196.248 139.267 196.87 139.196 197.348 139.134C197.825 139.065 198.172 138.963 198.388 138.827C198.609 138.685 198.72 138.466 198.72 138.17V138.119C198.72 137.477 198.53 136.98 198.149 136.628C197.768 136.276 197.22 136.099 196.504 136.099C195.748 136.099 195.149 136.264 194.706 136.594C194.268 136.923 193.973 137.312 193.819 137.761L190.939 137.352C191.166 136.557 191.541 135.892 192.064 135.358C192.586 134.818 193.226 134.415 193.981 134.148C194.737 133.875 195.572 133.739 196.487 133.739C197.118 133.739 197.745 133.812 198.37 133.96C198.995 134.108 199.567 134.352 200.084 134.693C200.601 135.028 201.015 135.486 201.328 136.065C201.646 136.645 201.805 137.369 201.805 138.239V147H198.839V145.202H198.737C198.549 145.565 198.285 145.906 197.944 146.224C197.609 146.537 197.186 146.79 196.674 146.983C196.169 147.17 195.575 147.264 194.893 147.264ZM195.694 144.997C196.314 144.997 196.851 144.875 197.305 144.631C197.76 144.381 198.109 144.051 198.353 143.642C198.603 143.233 198.728 142.787 198.728 142.304V140.761C198.632 140.841 198.467 140.915 198.234 140.983C198.007 141.051 197.751 141.111 197.467 141.162C197.183 141.213 196.902 141.259 196.623 141.298C196.345 141.338 196.103 141.372 195.899 141.401C195.439 141.463 195.027 141.565 194.663 141.707C194.299 141.849 194.013 142.048 193.802 142.304C193.592 142.554 193.487 142.878 193.487 143.276C193.487 143.844 193.694 144.273 194.109 144.562C194.524 144.852 195.052 144.997 195.694 144.997ZM209.285 147.23C208.257 147.23 207.337 146.966 206.524 146.438C205.712 145.909 205.069 145.142 204.598 144.136C204.126 143.131 203.89 141.909 203.89 140.472C203.89 139.017 204.129 137.79 204.606 136.79C205.089 135.784 205.74 135.026 206.558 134.514C207.376 133.997 208.288 133.739 209.294 133.739C210.061 133.739 210.692 133.869 211.186 134.131C211.68 134.386 212.072 134.696 212.362 135.06C212.652 135.418 212.876 135.756 213.035 136.074H213.163V129.545H216.257V147H213.223V144.938H213.035C212.876 145.256 212.646 145.594 212.345 145.952C212.044 146.304 211.646 146.605 211.152 146.855C210.658 147.105 210.035 147.23 209.285 147.23ZM210.146 144.699C210.8 144.699 211.356 144.523 211.817 144.17C212.277 143.812 212.626 143.315 212.865 142.679C213.104 142.043 213.223 141.301 213.223 140.455C213.223 139.608 213.104 138.872 212.865 138.247C212.632 137.622 212.285 137.136 211.825 136.79C211.371 136.443 210.811 136.27 210.146 136.27C209.459 136.27 208.885 136.449 208.425 136.807C207.964 137.165 207.618 137.659 207.385 138.29C207.152 138.92 207.035 139.642 207.035 140.455C207.035 141.273 207.152 142.003 207.385 142.645C207.623 143.281 207.973 143.784 208.433 144.153C208.899 144.517 209.47 144.699 210.146 144.699ZM231.075 133.909V136.295H223.549V133.909H231.075ZM225.407 130.773H228.492V143.062C228.492 143.477 228.555 143.795 228.68 144.017C228.81 144.233 228.981 144.381 229.191 144.46C229.401 144.54 229.634 144.58 229.89 144.58C230.083 144.58 230.259 144.565 230.418 144.537C230.583 144.509 230.708 144.483 230.793 144.46L231.313 146.872C231.149 146.929 230.913 146.991 230.606 147.06C230.305 147.128 229.935 147.168 229.498 147.179C228.725 147.202 228.029 147.085 227.41 146.83C226.791 146.568 226.299 146.165 225.935 145.619C225.577 145.074 225.401 144.392 225.407 143.574V130.773ZM236.541 139.33V147H233.456V129.545H236.473V136.134H236.627C236.933 135.395 237.408 134.812 238.05 134.386C238.698 133.955 239.522 133.739 240.522 133.739C241.431 133.739 242.223 133.929 242.899 134.31C243.575 134.69 244.098 135.247 244.468 135.98C244.843 136.713 245.03 137.608 245.03 138.665V147H241.945V139.142C241.945 138.261 241.718 137.577 241.263 137.088C240.814 136.594 240.183 136.347 239.371 136.347C238.825 136.347 238.337 136.466 237.905 136.705C237.479 136.937 237.144 137.276 236.899 137.719C236.661 138.162 236.541 138.699 236.541 139.33ZM253.49 147.256C252.178 147.256 251.044 146.983 250.09 146.438C249.141 145.886 248.411 145.108 247.899 144.102C247.388 143.091 247.132 141.901 247.132 140.531C247.132 139.185 247.388 138.003 247.899 136.986C248.417 135.963 249.138 135.168 250.064 134.599C250.99 134.026 252.078 133.739 253.328 133.739C254.135 133.739 254.897 133.869 255.613 134.131C256.334 134.386 256.97 134.784 257.522 135.324C258.078 135.864 258.516 136.551 258.834 137.386C259.152 138.216 259.311 139.205 259.311 140.352V141.298H248.581V139.219H256.354C256.348 138.628 256.22 138.102 255.97 137.642C255.72 137.176 255.371 136.81 254.922 136.543C254.479 136.276 253.962 136.142 253.371 136.142C252.74 136.142 252.186 136.295 251.709 136.602C251.232 136.903 250.86 137.301 250.593 137.795C250.331 138.284 250.198 138.821 250.192 139.406V141.222C250.192 141.983 250.331 142.636 250.61 143.182C250.888 143.722 251.277 144.136 251.777 144.426C252.277 144.71 252.863 144.852 253.533 144.852C253.982 144.852 254.388 144.79 254.752 144.665C255.115 144.534 255.431 144.344 255.698 144.094C255.965 143.844 256.167 143.534 256.303 143.165L259.184 143.489C259.002 144.25 258.655 144.915 258.144 145.483C257.638 146.045 256.99 146.483 256.201 146.795C255.411 147.102 254.507 147.256 253.49 147.256ZM277.261 137.369L274.449 137.676C274.369 137.392 274.23 137.125 274.031 136.875C273.838 136.625 273.577 136.423 273.247 136.27C272.917 136.116 272.514 136.04 272.037 136.04C271.395 136.04 270.855 136.179 270.417 136.457C269.986 136.736 269.773 137.097 269.778 137.54C269.773 137.92 269.912 138.23 270.196 138.469C270.486 138.707 270.963 138.903 271.628 139.057L273.861 139.534C275.099 139.801 276.02 140.224 276.622 140.804C277.23 141.384 277.537 142.142 277.542 143.08C277.537 143.903 277.295 144.631 276.818 145.261C276.346 145.886 275.69 146.375 274.849 146.727C274.008 147.08 273.042 147.256 271.952 147.256C270.349 147.256 269.059 146.92 268.082 146.25C267.105 145.574 266.523 144.634 266.335 143.429L269.344 143.139C269.48 143.73 269.77 144.176 270.213 144.477C270.656 144.778 271.233 144.929 271.943 144.929C272.676 144.929 273.264 144.778 273.707 144.477C274.156 144.176 274.381 143.804 274.381 143.361C274.381 142.986 274.236 142.676 273.946 142.432C273.662 142.187 273.219 142 272.616 141.869L270.383 141.401C269.128 141.139 268.199 140.699 267.596 140.08C266.994 139.455 266.696 138.665 266.702 137.71C266.696 136.903 266.915 136.205 267.358 135.614C267.807 135.017 268.429 134.557 269.224 134.233C270.025 133.903 270.949 133.739 271.994 133.739C273.528 133.739 274.736 134.065 275.616 134.719C276.503 135.372 277.051 136.256 277.261 137.369ZM285.317 147.256C284.038 147.256 282.93 146.974 281.993 146.412C281.055 145.849 280.328 145.062 279.811 144.051C279.3 143.04 279.044 141.858 279.044 140.506C279.044 139.153 279.3 137.969 279.811 136.952C280.328 135.935 281.055 135.145 281.993 134.582C282.93 134.02 284.038 133.739 285.317 133.739C286.595 133.739 287.703 134.02 288.641 134.582C289.578 135.145 290.303 135.935 290.814 136.952C291.331 137.969 291.589 139.153 291.589 140.506C291.589 141.858 291.331 143.04 290.814 144.051C290.303 145.062 289.578 145.849 288.641 146.412C287.703 146.974 286.595 147.256 285.317 147.256ZM285.334 144.784C286.027 144.784 286.606 144.594 287.072 144.213C287.538 143.827 287.885 143.31 288.112 142.662C288.345 142.014 288.462 141.293 288.462 140.497C288.462 139.696 288.345 138.972 288.112 138.324C287.885 137.67 287.538 137.151 287.072 136.764C286.606 136.378 286.027 136.185 285.334 136.185C284.624 136.185 284.033 136.378 283.561 136.764C283.095 137.151 282.746 137.67 282.513 138.324C282.285 138.972 282.172 139.696 282.172 140.497C282.172 141.293 282.285 142.014 282.513 142.662C282.746 143.31 283.095 143.827 283.561 144.213C284.033 144.594 284.624 144.784 285.334 144.784ZM302.072 141.494V133.909H305.157V147H302.166V144.673H302.029C301.734 145.406 301.248 146.006 300.572 146.472C299.901 146.937 299.075 147.17 298.092 147.17C297.234 147.17 296.475 146.98 295.816 146.599C295.163 146.213 294.651 145.653 294.282 144.92C293.913 144.182 293.728 143.29 293.728 142.244V133.909H296.813V141.767C296.813 142.597 297.041 143.256 297.495 143.744C297.95 144.233 298.546 144.477 299.285 144.477C299.739 144.477 300.18 144.366 300.606 144.145C301.032 143.923 301.381 143.594 301.654 143.156C301.933 142.713 302.072 142.159 302.072 141.494ZM307.85 147V133.909H310.841V136.091H310.977C311.216 135.335 311.625 134.753 312.205 134.344C312.79 133.929 313.458 133.722 314.208 133.722C314.378 133.722 314.568 133.73 314.779 133.747C314.994 133.759 315.173 133.778 315.316 133.807V136.645C315.185 136.599 314.977 136.56 314.693 136.526C314.415 136.486 314.145 136.466 313.884 136.466C313.321 136.466 312.816 136.588 312.367 136.832C311.923 137.071 311.574 137.403 311.318 137.83C311.063 138.256 310.935 138.747 310.935 139.304V147H307.85ZM322.056 147.256C320.75 147.256 319.627 146.969 318.69 146.395C317.758 145.821 317.039 145.028 316.534 144.017C316.034 143 315.784 141.83 315.784 140.506C315.784 139.176 316.039 138.003 316.551 136.986C317.062 135.963 317.784 135.168 318.715 134.599C319.653 134.026 320.761 133.739 322.039 133.739C323.102 133.739 324.042 133.935 324.86 134.327C325.684 134.713 326.34 135.261 326.829 135.972C327.318 136.676 327.596 137.5 327.664 138.443H324.715C324.596 137.812 324.312 137.287 323.863 136.866C323.42 136.44 322.826 136.227 322.082 136.227C321.451 136.227 320.897 136.398 320.42 136.739C319.943 137.074 319.571 137.557 319.304 138.188C319.042 138.818 318.912 139.574 318.912 140.455C318.912 141.347 319.042 142.114 319.304 142.756C319.565 143.392 319.931 143.884 320.403 144.23C320.88 144.571 321.44 144.741 322.082 144.741C322.537 144.741 322.943 144.656 323.301 144.486C323.664 144.31 323.968 144.057 324.213 143.727C324.457 143.398 324.625 142.997 324.715 142.526H327.664C327.59 143.452 327.318 144.273 326.846 144.989C326.375 145.699 325.733 146.256 324.92 146.659C324.108 147.057 323.153 147.256 322.056 147.256ZM335.513 147.256C334.201 147.256 333.067 146.983 332.113 146.438C331.164 145.886 330.434 145.108 329.922 144.102C329.411 143.091 329.155 141.901 329.155 140.531C329.155 139.185 329.411 138.003 329.922 136.986C330.439 135.963 331.161 135.168 332.087 134.599C333.013 134.026 334.101 133.739 335.351 133.739C336.158 133.739 336.919 133.869 337.635 134.131C338.357 134.386 338.993 134.784 339.544 135.324C340.101 135.864 340.539 136.551 340.857 137.386C341.175 138.216 341.334 139.205 341.334 140.352V141.298H330.604V139.219H338.377C338.371 138.628 338.243 138.102 337.993 137.642C337.743 137.176 337.394 136.81 336.945 136.543C336.502 136.276 335.985 136.142 335.394 136.142C334.763 136.142 334.209 136.295 333.732 136.602C333.255 136.903 332.883 137.301 332.615 137.795C332.354 138.284 332.221 138.821 332.215 139.406V141.222C332.215 141.983 332.354 142.636 332.633 143.182C332.911 143.722 333.3 144.136 333.8 144.426C334.3 144.71 334.885 144.852 335.556 144.852C336.005 144.852 336.411 144.79 336.775 144.665C337.138 144.534 337.454 144.344 337.721 144.094C337.988 143.844 338.189 143.534 338.326 143.165L341.206 143.489C341.025 144.25 340.678 144.915 340.167 145.483C339.661 146.045 339.013 146.483 338.223 146.795C337.434 147.102 336.53 147.256 335.513 147.256ZM355.568 133.909V136.295H347.829V133.909H355.568ZM349.764 147V132.673C349.764 131.793 349.946 131.06 350.31 130.474C350.679 129.889 351.173 129.452 351.793 129.162C352.412 128.872 353.099 128.727 353.855 128.727C354.389 128.727 354.864 128.77 355.278 128.855C355.693 128.94 356 129.017 356.199 129.085L355.585 131.472C355.454 131.432 355.29 131.392 355.091 131.352C354.892 131.307 354.67 131.284 354.426 131.284C353.852 131.284 353.446 131.423 353.207 131.702C352.974 131.974 352.858 132.366 352.858 132.878V147H349.764ZM357.504 147V133.909H360.59V147H357.504ZM359.055 132.051C358.567 132.051 358.146 131.889 357.794 131.565C357.442 131.236 357.266 130.841 357.266 130.381C357.266 129.915 357.442 129.52 357.794 129.196C358.146 128.866 358.567 128.702 359.055 128.702C359.55 128.702 359.97 128.866 360.317 129.196C360.669 129.52 360.845 129.915 360.845 130.381C360.845 130.841 360.669 131.236 360.317 131.565C359.97 131.889 359.55 132.051 359.055 132.051ZM366.367 129.545V147H363.282V129.545H366.367ZM374.855 147.256C373.543 147.256 372.409 146.983 371.455 146.438C370.506 145.886 369.776 145.108 369.264 144.102C368.753 143.091 368.497 141.901 368.497 140.531C368.497 139.185 368.753 138.003 369.264 136.986C369.782 135.963 370.503 135.168 371.429 134.599C372.355 134.026 373.443 133.739 374.693 133.739C375.5 133.739 376.262 133.869 376.978 134.131C377.699 134.386 378.335 134.784 378.887 135.324C379.443 135.864 379.881 136.551 380.199 137.386C380.517 138.216 380.676 139.205 380.676 140.352V141.298H369.946V139.219H377.719C377.713 138.628 377.585 138.102 377.335 137.642C377.085 137.176 376.736 136.81 376.287 136.543C375.844 136.276 375.327 136.142 374.736 136.142C374.105 136.142 373.551 136.295 373.074 136.602C372.597 136.903 372.225 137.301 371.958 137.795C371.696 138.284 371.563 138.821 371.557 139.406V141.222C371.557 141.983 371.696 142.636 371.975 143.182C372.253 143.722 372.642 144.136 373.142 144.426C373.642 144.71 374.228 144.852 374.898 144.852C375.347 144.852 375.753 144.79 376.117 144.665C376.48 144.534 376.796 144.344 377.063 144.094C377.33 143.844 377.532 143.534 377.668 143.165L380.549 143.489C380.367 144.25 380.02 144.915 379.509 145.483C379.003 146.045 378.355 146.483 377.566 146.795C376.776 147.102 375.872 147.256 374.855 147.256Z" fill="#141718"/>
<path d="M209.479 175.094C209.207 175.094 208.973 174.998 208.778 174.806C208.582 174.611 208.484 174.375 208.484 174.1C208.484 173.828 208.582 173.596 208.778 173.404C208.973 173.209 209.207 173.111 209.479 173.111C209.75 173.111 209.984 173.209 210.18 173.404C210.375 173.596 210.473 173.828 210.473 174.1C210.473 174.282 210.427 174.45 210.334 174.602C210.244 174.751 210.125 174.871 209.976 174.96C209.827 175.05 209.661 175.094 209.479 175.094ZM215.541 175.154C214.802 175.154 214.165 174.987 213.632 174.652C213.101 174.314 212.694 173.848 212.409 173.255C212.124 172.662 211.981 171.982 211.981 171.217C211.981 170.441 212.127 169.757 212.419 169.163C212.71 168.567 213.121 168.101 213.652 167.766C214.182 167.432 214.807 167.264 215.526 167.264C216.106 167.264 216.623 167.372 217.077 167.587C217.531 167.799 217.897 168.098 218.176 168.482C218.457 168.867 218.625 169.316 218.678 169.83H217.231C217.152 169.472 216.969 169.163 216.684 168.905C216.402 168.646 216.025 168.517 215.551 168.517C215.136 168.517 214.773 168.626 214.462 168.845C214.154 169.061 213.913 169.369 213.741 169.77C213.569 170.168 213.483 170.638 213.483 171.182C213.483 171.739 213.567 172.219 213.736 172.624C213.905 173.028 214.144 173.341 214.452 173.563C214.764 173.785 215.13 173.896 215.551 173.896C215.832 173.896 216.088 173.845 216.316 173.742C216.548 173.636 216.742 173.485 216.898 173.29C217.057 173.094 217.168 172.859 217.231 172.584H218.678C218.625 173.078 218.464 173.518 218.196 173.906C217.927 174.294 217.568 174.599 217.117 174.821C216.669 175.043 216.144 175.154 215.541 175.154ZM225.85 169.228L224.502 169.467C224.446 169.294 224.357 169.13 224.234 168.974C224.115 168.819 223.952 168.691 223.747 168.592C223.541 168.492 223.284 168.442 222.976 168.442C222.555 168.442 222.204 168.537 221.922 168.726C221.641 168.911 221.5 169.152 221.5 169.447C221.5 169.702 221.594 169.907 221.783 170.063C221.972 170.219 222.277 170.347 222.698 170.446L223.911 170.724C224.614 170.887 225.137 171.137 225.482 171.475C225.827 171.813 225.999 172.252 225.999 172.793C225.999 173.25 225.866 173.658 225.601 174.016C225.339 174.37 224.973 174.649 224.502 174.851C224.035 175.053 223.493 175.154 222.877 175.154C222.022 175.154 221.324 174.972 220.784 174.607C220.243 174.239 219.912 173.717 219.789 173.041L221.226 172.822C221.316 173.197 221.5 173.48 221.778 173.673C222.056 173.862 222.419 173.956 222.867 173.956C223.354 173.956 223.743 173.855 224.035 173.653C224.327 173.447 224.473 173.197 224.473 172.902C224.473 172.663 224.383 172.463 224.204 172.3C224.029 172.138 223.758 172.015 223.394 171.933L222.101 171.649C221.389 171.487 220.862 171.228 220.52 170.874C220.182 170.519 220.013 170.07 220.013 169.526C220.013 169.076 220.139 168.681 220.391 168.343C220.643 168.005 220.991 167.741 221.435 167.553C221.879 167.36 222.388 167.264 222.961 167.264C223.787 167.264 224.436 167.443 224.91 167.801C225.384 168.156 225.697 168.631 225.85 169.228ZM234.026 167.364L231.257 175H229.666L226.892 167.364H228.488L230.422 173.24H230.501L232.43 167.364H234.026ZM243.685 171.833V167.364H245.177V175H243.715V173.678H243.636C243.46 174.085 243.178 174.425 242.791 174.697C242.406 174.965 241.927 175.099 241.354 175.099C240.863 175.099 240.429 174.992 240.051 174.776C239.677 174.558 239.382 174.234 239.166 173.807C238.954 173.379 238.848 172.851 238.848 172.221V167.364H240.335V172.042C240.335 172.562 240.479 172.977 240.767 173.285C241.056 173.593 241.43 173.747 241.891 173.747C242.169 173.747 242.446 173.678 242.721 173.538C242.999 173.399 243.23 173.189 243.412 172.907C243.598 172.625 243.689 172.267 243.685 171.833ZM247.034 177.864V167.364H248.486V168.602H248.61C248.696 168.442 248.821 168.259 248.983 168.05C249.146 167.841 249.371 167.659 249.659 167.503C249.948 167.344 250.329 167.264 250.803 167.264C251.419 167.264 251.969 167.42 252.453 167.732C252.937 168.043 253.317 168.492 253.592 169.079C253.87 169.665 254.009 170.371 254.009 171.197C254.009 172.022 253.872 172.73 253.597 173.32C253.322 173.906 252.944 174.359 252.463 174.677C251.983 174.992 251.434 175.149 250.818 175.149C250.354 175.149 249.974 175.071 249.679 174.915C249.388 174.76 249.159 174.577 248.993 174.369C248.827 174.16 248.7 173.974 248.61 173.812H248.521V177.864H247.034ZM248.491 171.182C248.491 171.719 248.569 172.189 248.725 172.594C248.88 172.998 249.106 173.315 249.401 173.543C249.696 173.769 250.057 173.881 250.485 173.881C250.929 173.881 251.3 173.764 251.598 173.528C251.897 173.29 252.122 172.967 252.274 172.559C252.43 172.151 252.508 171.692 252.508 171.182C252.508 170.678 252.432 170.226 252.279 169.825C252.13 169.424 251.905 169.107 251.603 168.875C251.305 168.643 250.932 168.527 250.485 168.527C250.054 168.527 249.689 168.638 249.391 168.86C249.096 169.082 248.872 169.392 248.72 169.79C248.567 170.187 248.491 170.652 248.491 171.182ZM262.665 167.364V168.557H258.493V167.364H262.665ZM259.612 165.534H261.099V172.758C261.099 173.046 261.142 173.263 261.228 173.409C261.314 173.552 261.425 173.649 261.561 173.702C261.7 173.752 261.851 173.777 262.013 173.777C262.133 173.777 262.237 173.769 262.327 173.752C262.416 173.736 262.486 173.722 262.535 173.712L262.804 174.94C262.718 174.973 262.595 175.007 262.436 175.04C262.277 175.076 262.078 175.096 261.839 175.099C261.448 175.106 261.084 175.036 260.746 174.891C260.408 174.745 260.134 174.519 259.925 174.214C259.716 173.91 259.612 173.527 259.612 173.066V165.534ZM267.304 175.154C266.588 175.154 265.963 174.99 265.429 174.662C264.896 174.334 264.481 173.875 264.186 173.285C263.891 172.695 263.744 172.005 263.744 171.217C263.744 170.424 263.891 169.732 264.186 169.138C264.481 168.545 264.896 168.085 265.429 167.756C265.963 167.428 266.588 167.264 267.304 167.264C268.019 167.264 268.644 167.428 269.178 167.756C269.711 168.085 270.126 168.545 270.421 169.138C270.716 169.732 270.863 170.424 270.863 171.217C270.863 172.005 270.716 172.695 270.421 173.285C270.126 173.875 269.711 174.334 269.178 174.662C268.644 174.99 268.019 175.154 267.304 175.154ZM267.309 173.906C267.773 173.906 268.157 173.784 268.462 173.538C268.767 173.293 268.992 172.967 269.138 172.559C269.287 172.151 269.362 171.702 269.362 171.212C269.362 170.724 269.287 170.277 269.138 169.869C268.992 169.458 268.767 169.129 268.462 168.88C268.157 168.631 267.773 168.507 267.309 168.507C266.841 168.507 266.453 168.631 266.145 168.88C265.84 169.129 265.613 169.458 265.464 169.869C265.318 170.277 265.245 170.724 265.245 171.212C265.245 171.702 265.318 172.151 265.464 172.559C265.613 172.967 265.84 173.293 266.145 173.538C266.453 173.784 266.841 173.906 267.309 173.906ZM279.791 164.818V175H278.249V166.359H278.19L275.754 167.95V166.479L278.294 164.818H279.791ZM285.95 175.169C285.164 175.166 284.493 174.959 283.936 174.548C283.379 174.137 282.953 173.538 282.658 172.753C282.363 171.967 282.216 171.021 282.216 169.914C282.216 168.81 282.363 167.867 282.658 167.085C282.957 166.303 283.384 165.706 283.941 165.295C284.501 164.884 285.171 164.679 285.95 164.679C286.728 164.679 287.396 164.886 287.953 165.3C288.51 165.711 288.936 166.308 289.231 167.09C289.529 167.869 289.678 168.81 289.678 169.914C289.678 171.024 289.531 171.972 289.236 172.758C288.941 173.54 288.515 174.138 287.958 174.553C287.401 174.964 286.732 175.169 285.95 175.169ZM285.95 173.842C286.639 173.842 287.178 173.505 287.565 172.832C287.956 172.16 288.152 171.187 288.152 169.914C288.152 169.069 288.063 168.355 287.884 167.771C287.708 167.185 287.454 166.741 287.123 166.439C286.795 166.134 286.404 165.982 285.95 165.982C285.264 165.982 284.725 166.32 284.334 166.996C283.943 167.672 283.746 168.645 283.742 169.914C283.742 170.763 283.83 171.48 284.006 172.067C284.185 172.65 284.438 173.093 284.766 173.394C285.095 173.692 285.489 173.842 285.95 173.842ZM291.441 164.818H293.306L296.547 172.733H296.666L299.908 164.818H301.772V175H300.311V167.632H300.216L297.213 174.985H296L292.997 167.627H292.903V175H291.441V164.818ZM303.866 175V164.818H307.594C308.317 164.818 308.915 164.937 309.389 165.176C309.863 165.411 310.218 165.731 310.453 166.136C310.688 166.537 310.806 166.989 310.806 167.493C310.806 167.917 310.728 168.275 310.572 168.567C310.417 168.855 310.208 169.087 309.946 169.263C309.687 169.435 309.402 169.561 309.091 169.641V169.74C309.429 169.757 309.759 169.866 310.08 170.068C310.405 170.267 310.673 170.55 310.886 170.918C311.098 171.286 311.204 171.734 311.204 172.261C311.204 172.781 311.081 173.248 310.836 173.663C310.594 174.074 310.219 174.4 309.712 174.642C309.205 174.881 308.557 175 307.768 175H303.866ZM305.402 173.683H307.619C308.355 173.683 308.882 173.54 309.2 173.255C309.518 172.97 309.677 172.614 309.677 172.186C309.677 171.865 309.596 171.57 309.434 171.301C309.271 171.033 309.039 170.819 308.738 170.66C308.44 170.501 308.085 170.421 307.674 170.421H305.402V173.683ZM305.402 169.223H307.46C307.805 169.223 308.115 169.157 308.39 169.024C308.668 168.892 308.889 168.706 309.051 168.467C309.217 168.225 309.3 167.94 309.3 167.612C309.3 167.191 309.152 166.838 308.857 166.553C308.562 166.268 308.11 166.126 307.5 166.126H305.402V169.223Z" fill="#6C7275"/>
<rect x="17" y="15" width="486" height="182" rx="11" stroke="#E8ECEF" stroke-width="2" stroke-dasharray="8 4"/>
</g>
<defs>
<filter id="filter0_d_1095_2937" x="0" y="0" width="520" height="216" filterUnits="userSpaceOnUse" color-interpolation-filters="sRGB">
<feFlood flood-opacity="0" result="BackgroundImageFix"/>
<feColorMatrix in="SourceAlpha" type="matrix" values="0 0 0 0 0 0 0 0 0 0 0 0 0 0 0 0 0 0 127 0" result="hardAlpha"/>
<feOffset dy="2"/>
<feGaussianBlur stdDeviation="2"/>
<feComposite in2="hardAlpha" operator="out"/>
<feColorMatrix type="matrix" values="0 0 0 0 0 0 0 0 0 0 0 0 0 0 0 0 0 0 0.15 0"/>
<feBlend mode="multiply" in2="BackgroundImageFix" result="effect1_dropShadow_1095_2937"/>
<feBlend mode="normal" in="SourceGraphic" in2="effect1_dropShadow_1095_2937" result="shape"/>
</filter>
</defs>
</svg>
