<svg width="122" height="125" viewBox="0 0 122 125" fill="none" xmlns="http://www.w3.org/2000/svg">
<g opacity="0.5">
<path d="M106.86 47.3346C109.525 47.3346 111.684 45.1722 111.684 42.5066C111.684 39.841 109.525 37.6786 106.86 37.6786C104.194 37.6786 102.035 39.841 102.035 42.5066C102.035 45.1722 104.194 47.3346 106.86 47.3346Z" fill="white" stroke="#6C7275" stroke-width="2"/>
<path d="M5.26618 68.0358C7.20895 68.0358 8.78235 66.4597 8.78235 64.5173C8.78235 62.575 7.20895 60.9989 5.26618 60.9989C3.3234 60.9989 1.75 62.575 1.75 64.5173C1.75 66.4597 3.3234 68.0358 5.26618 68.0358Z" fill="white" stroke="#6C7275" stroke-width="2"/>
<path d="M16.8325 113.312C18.7753 113.312 20.3487 111.736 20.3487 109.794C20.3487 107.852 18.7753 106.276 16.8325 106.276C14.8897 106.276 13.3163 107.852 13.3163 109.794C13.3163 111.736 14.8897 113.312 16.8325 113.312Z" fill="white" stroke="#6C7275" stroke-width="2"/>
<path d="M65.5 123.426L100.809 112.362V67L65.5 78.0638V123.426Z" fill="white" stroke="#6C7275" stroke-width="2" stroke-miterlimit="10" stroke-linejoin="round"/>
<path d="M30.2825 112.312L65.5915 101.249V55.8868L30.2825 66.8656V112.312Z" fill="white" stroke="#6C7275" stroke-width="2" stroke-miterlimit="10" stroke-linejoin="round"/>
<path d="M65.5915 123.461L30.2825 112.397V67.0358L65.5915 78.0996V123.461Z" fill="white" stroke="#6C7275" stroke-width="2" stroke-miterlimit="10" stroke-linejoin="round"/>
<path fill-rule="evenodd" clip-rule="evenodd" d="M65.5914 55.8868V78.0996L100.9 67.0358V66.8656L65.5914 55.8868Z" fill="white"/>
<path d="M65.5914 78.0996H64.5914C64.5914 78.4179 64.7429 78.7171 64.9994 78.9055C65.2559 79.0939 65.5867 79.149 65.8904 79.0538L65.5914 78.0996ZM65.5914 55.8868L65.8883 54.9319C65.5848 54.8376 65.2545 54.8931 64.9985 55.0816C64.7426 55.27 64.5914 55.569 64.5914 55.8868H65.5914ZM100.9 67.0358L101.199 67.99C101.617 67.8593 101.9 67.4729 101.9 67.0358H100.9ZM100.9 66.8656H101.9C101.9 66.4277 101.615 66.0407 101.197 65.9107L100.9 66.8656ZM66.5914 78.0996V55.8868H64.5914V78.0996H66.5914ZM100.601 66.0815L65.2924 77.1453L65.8904 79.0538L101.199 67.99L100.601 66.0815ZM99.9004 66.8656V67.0358H101.9V66.8656H99.9004ZM65.2945 56.8417L100.604 67.8205L101.197 65.9107L65.8883 54.9319L65.2945 56.8417Z" fill="#6C7275"/>
<path d="M65.5914 55.8868L48.9903 43.4613L13.0914 55.5464L30.2824 66.8656L65.5914 55.8868Z" fill="white" stroke="#6C7275" stroke-width="2" stroke-miterlimit="10" stroke-linejoin="round"/>
<path d="M65.5914 55.8868L82.1926 43.4613L118.091 55.5464L100.9 66.8656L65.5914 55.8868Z" fill="white" stroke="#6C7275" stroke-width="2" stroke-miterlimit="10" stroke-linejoin="round"/>
<path d="M30.2824 67.0358L65.5914 78.0996L47.9791 89.3336L13.0914 77.7592L30.2824 67.0358Z" fill="white" stroke="#6C7275" stroke-width="2" stroke-miterlimit="10" stroke-linejoin="round"/>
<path d="M100.9 67.0358L65.5914 78.0996L83.2038 89.3336L118.091 77.7592L100.9 67.0358Z" fill="white" stroke="#6C7275" stroke-width="2" stroke-miterlimit="10" stroke-linejoin="round"/>
<path d="M75.4429 12.3381C80.3895 25.7625 81.8639 28.7454 82.3478 41.9733C82.1617 44.9927 82.0463 48.2761 80.6228 50.92C78.7217 54.9645 74.0716 57.7654 69.6783 57.8108C65.1524 57.8917 60.7153 55.1205 58.7181 50.8474C57.313 48.2541 57.3577 44.7069 59.2851 42.3523C61.3804 40.0941 65.0666 39.5311 67.7183 40.9421C70.6352 42.282 72.3762 45.0682 73.0211 48.0065C73.666 50.9449 73.3826 54.1318 72.5955 57.0295C70.9492 64.0769 69.5857 64.4179 65.5484 76.3496" stroke="#6C7275" stroke-width="2" stroke-miterlimit="10" stroke-dasharray="4 4"/>
<path d="M81.4631 5.23251C81.4516 7.20649 79.6146 8.41518 77.2851 7.78489C74.8323 7.36678 73.0964 6.93586 72.9847 5.17406C73.0409 3.36726 75.0122 2.66011 77.3196 1.86297C80.0861 0.763646 81.3066 3.30354 81.4631 5.23251Z" fill="white" stroke="#6C7275" stroke-width="2" stroke-miterlimit="10" stroke-linejoin="round"/>
<path d="M65.6141 11.2689C66.8571 12.5485 69.4778 12.9216 70.7549 10.967C72.1553 8.80026 73.3539 7.22502 72.0661 5.7782C70.8231 4.49857 69.6133 5.36009 66.8468 6.45941C64.629 7.59092 64.1583 9.86706 65.6141 11.2689Z" fill="white" stroke="#6C7275" stroke-width="2" stroke-miterlimit="10" stroke-linejoin="round"/>
<path d="M71.3497 3.10355C72.481 2.62139 73.8362 2.97513 74.4408 3.88821C74.6984 4.17757 75.0007 4.63412 75.0903 4.96848C76.0532 7.21901 75.7504 9.45016 74.4512 9.97732C73.0286 10.7167 71.0688 9.44983 70.3187 7.32149C70.1396 6.65277 70.0501 6.31841 69.9157 5.81687C69.7703 4.60161 70.2184 3.58572 71.3497 3.10355C71.5177 3.05856 71.3497 3.10355 71.3497 3.10355Z" fill="white"/>
<path d="M71.3497 3.10355C72.481 2.62139 73.8362 2.97513 74.4408 3.88821C74.6984 4.17757 75.0007 4.63412 75.0903 4.96848C76.0532 7.21901 75.7504 9.45016 74.4512 9.97732C73.0286 10.7167 71.0688 9.44983 70.3187 7.32149C70.1396 6.65277 70.0501 6.31841 69.9157 5.81687C69.7703 4.60161 70.2184 3.58572 71.3497 3.10355ZM71.3497 3.10355C71.3497 3.10355 71.5177 3.05856 71.3497 3.10355Z" stroke="#6C7275" stroke-width="2" stroke-miterlimit="10" stroke-linejoin="round"/>
<path d="M19.3487 39.3315H17.1587V37.1415H15.2815V39.3315H13.0914V41.2713H15.2815V43.4613H17.1587V41.2713H19.3487V39.3315Z" fill="#6C7275"/>
<path d="M24.1594 94.2787H21.9693V92.0886H20.0921V94.2787H17.9021V96.2184H20.0921V98.4085H21.9693V96.2184H24.1594V94.2787Z" fill="#6C7275"/>
<path d="M119.897 94.4027L117.218 93.0498L118.57 90.3703L116.274 89.2107L114.921 91.8902L112.241 90.5373L111.043 92.9107L113.723 94.2635L112.37 96.9431L114.666 98.1027L116.019 95.4231L118.699 96.776L119.897 94.4027Z" fill="#6C7275"/>
</g>
</svg>
